# 3ds Max Wavefront OBJ Exporter v0.97b - (c)2007 guruware
# File Created: 17.10.2016 01:03:48

#
# object hammer_mesh
#

v  0.5147 25.0000 0.7797
v  -0.5147 25.0000 0.7797
v  -1.0708 0.0000 0.9132
v  1.0708 0.0000 0.9132
v  1.2486 25.0000 -0.0648
v  1.2486 25.0000 0.0648
v  1.5600 0.0000 0.4367
v  1.5600 0.0000 -0.4367
v  -0.5147 25.0000 -0.7797
v  0.5147 25.0000 -0.7797
v  1.0708 0.0000 -0.9132
v  -1.0708 0.0000 -0.9132
v  -1.2486 25.0000 0.0648
v  -1.2486 25.0000 -0.0648
v  -1.5600 0.0000 -0.4367
v  -1.5600 0.0000 0.4367
v  1.1052 25.0000 0.4020
v  0.8608 25.0000 0.6401
v  -0.8608 25.0000 0.6401
v  -1.1052 25.0000 0.4020
v  0.8608 25.0000 -0.6401
v  1.1052 25.0000 -0.4020
v  -1.1052 25.0000 -0.4020
v  -0.8608 25.0000 -0.6401
v  -1.4273 -0.1568 -0.4073
v  -1.4272 -0.1568 0.4073
v  0.9542 -0.1663 -0.8524
v  -0.9542 -0.1663 -0.8524
v  1.4272 -0.1568 0.4073
v  1.4272 -0.1568 -0.4073
v  -0.9542 -0.1663 0.8524
v  0.9542 -0.1663 0.8524
v  0.0000 -0.1679 -0.0000
v  0.4948 25.0948 0.7133
v  -0.4948 25.0948 0.7133
v  1.2002 25.0948 -0.0593
v  1.2002 25.0948 0.0593
v  -0.4948 25.0948 -0.7133
v  0.4948 25.0948 -0.7133
v  -1.2002 25.0948 0.0593
v  -1.2002 25.0948 -0.0593
v  -0.8275 25.0948 0.5856
v  -1.0624 25.0948 0.3677
v  1.0624 25.0948 0.3677
v  0.8275 25.0948 0.5856
v  -1.0624 25.0948 -0.3677
v  -0.8275 25.0948 -0.5856
v  0.8275 25.0948 -0.5856
v  1.0624 25.0948 -0.3677
v  0.0000 25.0948 -0.0000
v  -5.9193 23.2539 1.4040
v  -1.5006 21.9263 1.4040
v  -1.5006 24.5814 1.4040
v  -1.5006 24.5814 -1.4040
v  -1.5006 21.9263 -1.4040
v  -5.9193 23.2539 -1.4040
v  -5.9221 23.4158 -1.2595
v  -5.9221 23.4158 1.2595
v  -1.5006 24.7321 1.2595
v  -1.5006 24.7321 -1.2595
v  5.6273 22.0495 -1.1422
v  5.6273 24.4582 -1.1422
v  5.6273 24.4582 1.1422
v  5.6273 22.0495 1.1422
v  5.4171 21.7896 -1.1422
v  5.4171 21.7896 1.1422
v  -1.5006 21.7757 1.2595
v  -1.5006 21.7757 -1.2595
v  5.4171 22.0495 1.3916
v  5.4171 24.4582 1.3916
v  5.4171 24.4582 -1.3916
v  5.4171 22.0495 -1.3916
v  5.4171 24.7182 1.1422
v  5.4171 24.7182 -1.1422
v  -5.9221 23.0920 1.2595
v  -5.9221 23.0920 -1.2595
v  -6.0253 23.2539 1.2595
v  -6.0253 23.2539 -1.2595
v  1.2645 23.7576 0.1299
v  1.2645 25.2708 0.1299
v  -1.2645 25.2708 0.1299
v  -1.2645 23.7576 0.1299
v  1.2645 23.7576 -0.1299
v  -1.2645 23.7576 -0.1299
v  -1.2645 25.2708 -0.1299
v  1.2645 25.2708 -0.1299
# 86 vertices

vn 0.1803 0.3014 0.9363
vn -0.1828 0.3035 0.9352
vn -0.3960 -0.2594 0.8809
vn 0.3968 -0.2606 0.8801
vn 0.9518 0.2375 -0.1940
vn 0.9529 0.2353 0.1912
vn 0.8773 -0.3156 0.3615
vn 0.8778 -0.3150 -0.3609
vn -0.1803 0.3014 -0.9363
vn 0.1828 0.3035 -0.9352
vn 0.3960 -0.2594 -0.8809
vn -0.3968 -0.2606 -0.8801
vn -0.9518 0.2375 0.1940
vn -0.9529 0.2353 -0.1912
vn -0.8773 -0.3155 -0.3616
vn -0.8778 -0.3150 0.3609
vn 0.7946 0.2565 0.5504
vn 0.5196 0.2862 0.8050
vn -0.5197 0.2910 0.8032
vn -0.7928 0.2618 0.5504
vn 0.5197 0.2910 -0.8032
vn 0.7928 0.2618 -0.5504
vn -0.7946 0.2565 -0.5504
vn -0.5196 0.2862 -0.8050
vn -0.4579 -0.8629 -0.2140
vn -0.4577 -0.8635 0.2118
vn 0.1573 -0.8060 -0.5706
vn -0.1585 -0.8059 -0.5705
vn 0.4577 -0.8630 0.2139
vn 0.4578 -0.8635 -0.2118
vn -0.1573 -0.8060 0.5706
vn 0.1585 -0.8059 0.5705
vn 0.0000 -1.0000 0.0000
vn 0.0860 0.8694 0.4865
vn -0.0898 0.8685 0.4875
vn 0.5558 0.8223 -0.1223
vn 0.5548 0.8237 0.1172
vn -0.0860 0.8694 -0.4865
vn 0.0898 0.8685 -0.4875
vn -0.5558 0.8223 0.1223
vn -0.5548 0.8237 -0.1172
vn -0.2770 0.8575 0.4335
vn -0.4485 0.8371 0.3131
vn 0.4455 0.8401 0.3096
vn 0.2732 0.8602 0.4307
vn -0.4455 0.8401 -0.3096
vn -0.2732 0.8602 -0.4307
vn 0.2770 0.8575 -0.4335
vn 0.4485 0.8371 -0.3131
vn 0.0000 1.0000 -0.0000
vn -0.4746 -0.0004 0.8802
vn -0.0591 -0.4021 0.9137
vn -0.0584 0.4017 0.9139
vn -0.0590 0.4019 -0.9138
vn -0.0584 -0.4019 -0.9138
vn -0.4746 0.0004 -0.8802
vn -0.5405 0.7664 -0.3471
vn -0.5410 0.7663 0.3467
vn -0.1261 0.9164 0.3799
vn -0.1265 0.9163 -0.3801
vn 0.9005 -0.3027 -0.3122
vn 0.9005 0.3026 -0.3122
vn 0.9005 0.3026 0.3122
vn 0.9005 -0.3027 0.3122
vn 0.3864 -0.8569 -0.3413
vn 0.3864 -0.8569 0.3413
vn -0.1265 -0.9163 0.3800
vn -0.1261 -0.9165 -0.3797
vn 0.3808 -0.3259 0.8653
vn 0.3808 0.3258 0.8654
vn 0.3808 0.3258 -0.8654
vn 0.3808 -0.3259 -0.8653
vn 0.3865 0.8568 0.3413
vn 0.3865 0.8568 -0.3413
vn -0.5405 -0.7664 0.3471
vn -0.5410 -0.7663 -0.3467
vn -0.9590 0.0000 0.2836
vn -0.9590 0.0000 -0.2836
vn 0.7071 0.0000 0.7071
vn 0.5774 0.5774 0.5774
vn -0.5774 0.5774 0.5774
vn -0.7071 0.0000 0.7071
vn 0.7071 0.0000 -0.7071
vn -0.7071 0.0000 -0.7071
vn -0.5774 0.5774 -0.5774
vn 0.5774 0.5774 -0.5774
# 86 vertex normals

vt 0.1357 0.9973 0.0000
vt 0.0891 0.9976 0.0000
vt 0.0791 0.0024 0.0000
vt 0.1526 0.0033 0.0000
vt 0.1904 0.9973 0.0000
vt 0.1846 0.9973 0.0000
vt 0.1760 0.0032 0.0000
vt 0.2060 0.0033 0.0000
vt 0.2859 0.9973 0.0000
vt 0.2393 0.9976 0.0000
vt 0.2294 0.0036 0.0000
vt 0.3028 0.0045 0.0000
vt 0.0402 0.9973 0.0000
vt 0.0343 0.9973 0.0000
vt 0.0257 0.0019 0.0000
vt 0.0557 0.0021 0.0000
vt 0.1680 0.9973 0.0000
vt 0.1526 0.9973 0.0000
vt 0.0722 0.9975 0.0000
vt 0.0568 0.9974 0.0000
vt 0.2225 0.9975 0.0000
vt 0.2070 0.9974 0.0000
vt 0.0178 0.9973 0.0000
vt 0.0023 0.9973 0.0000
vt 0.0023 0.0020 0.0000
vt 0.9405 0.0942 0.0000
vt 0.9407 0.0431 0.0000
vt 0.9534 0.0398 0.0000
vt 0.9529 0.0977 0.0000
vt 0.7910 0.1208 0.0000
vt 0.9109 0.1213 0.0000
vt 0.9192 0.1319 0.0000
vt 0.7827 0.1313 0.0000
vt 0.7620 0.0422 0.0000
vt 0.7618 0.0934 0.0000
vt 0.7493 0.0967 0.0000
vt 0.7494 0.0388 0.0000
vt 0.9114 0.0157 0.0000
vt 0.7915 0.0151 0.0000
vt 0.7833 0.0045 0.0000
vt 0.9198 0.0051 0.0000
vt 0.8512 0.0682 0.0000
vt 0.3028 0.9973 0.0000
vt 0.8469 0.2639 0.0000
vt 0.9292 0.2639 0.0000
vt 0.9313 0.2735 0.0000
vt 0.8448 0.2735 0.0000
vt 0.7887 0.2000 0.0000
vt 0.7887 0.2097 0.0000
vt 0.7801 0.2111 0.0000
vt 0.7800 0.1986 0.0000
vt 0.9292 0.1458 0.0000
vt 0.8469 0.1457 0.0000
vt 0.8448 0.1362 0.0000
vt 0.9313 0.1362 0.0000
vt 0.9874 0.2097 0.0000
vt 0.9874 0.2000 0.0000
vt 0.9959 0.1986 0.0000
vt 0.9961 0.2111 0.0000
vt 0.9567 0.2534 0.0000
vt 0.9760 0.2353 0.0000
vt 0.9834 0.2408 0.0000
vt 0.9616 0.2614 0.0000
vt 0.8000 0.2353 0.0000
vt 0.8194 0.2534 0.0000
vt 0.8145 0.2614 0.0000
vt 0.7927 0.2408 0.0000
vt 0.9760 0.1744 0.0000
vt 0.9567 0.1563 0.0000
vt 0.9616 0.1483 0.0000
vt 0.9834 0.1689 0.0000
vt 0.8194 0.1563 0.0000
vt 0.8001 0.1744 0.0000
vt 0.7927 0.1689 0.0000
vt 0.8145 0.1483 0.0000
vt 0.8880 0.2048 0.0000
vt 0.9049 0.2930 0.0000
vt 0.9838 0.5687 0.0000
vt 0.8205 0.5670 0.0000
vt 0.6400 0.5661 0.0000
vt 0.4771 0.5651 0.0000
vt 0.5602 0.2907 0.0000
vt 0.6530 0.2791 0.0000
vt 0.8096 0.2794 0.0000
vt 0.8077 0.5665 0.0000
vt 0.6528 0.5657 0.0000
vt 0.5142 0.0305 0.0000
vt 0.5143 0.2195 0.0000
vt 0.3351 0.2195 0.0000
vt 0.3350 0.0306 0.0000
vt 0.4553 0.9961 0.0000
vt 0.3099 0.9961 0.0000
vt 0.3099 0.5630 0.0000
vt 0.4643 0.5646 0.0000
vt 0.9739 0.9961 0.0000
vt 0.8216 0.9961 0.0000
vt 0.6312 0.9961 0.0000
vt 0.4782 0.9961 0.0000
vt 0.7988 0.9961 0.0000
vt 0.6541 0.9961 0.0000
vt 0.3099 0.2767 0.0000
vt 0.4666 0.2771 0.0000
vt 0.3338 0.2454 0.0000
vt 0.3097 0.2207 0.0000
vt 0.9050 0.2836 0.0000
vt 0.9182 0.2917 0.0000
vt 0.8916 0.2914 0.0000
vt 0.3098 0.0294 0.0000
vt 0.3338 0.0046 0.0000
vt 0.5602 0.2813 0.0000
vt 0.5735 0.2894 0.0000
vt 0.5469 0.2892 0.0000
vt 0.5395 0.2207 0.0000
vt 0.5155 0.2455 0.0000
vt 0.5155 0.0047 0.0000
vt 0.5396 0.0293 0.0000
vt 0.9967 0.5684 0.0000
vt 0.8096 0.2674 0.0000
vt 0.6530 0.2672 0.0000
vt 0.4666 0.2651 0.0000
vt 0.3099 0.2648 0.0000
vt 0.9967 0.9961 0.0000
vt 0.5662 0.2427 0.0000
vt 0.5662 0.1354 0.0000
vt 0.7455 0.1354 0.0000
vt 0.7455 0.2427 0.0000
vt 0.5662 0.0098 0.0000
vt 0.7455 0.0098 0.0000
vt 0.7455 0.1170 0.0000
vt 0.5662 0.1170 0.0000
vt 0.5478 0.2427 0.0000
vt 0.5478 0.1354 0.0000
vt 0.7639 0.1354 0.0000
vt 0.7639 0.2427 0.0000
# 134 texture coords

g hammer_mesh
s 1
f 1/1/1 2/2/2 3/3/3 4/4/4 
f 5/5/5 6/6/6 7/7/7 8/8/8 
f 9/9/9 10/10/10 11/11/11 12/12/12 
f 13/13/13 14/14/14 15/15/15 16/16/16 
f 17/17/17 18/18/18 4/4/4 7/7/7 
f 16/16/16 3/3/3 19/19/19 20/20/20 
f 21/21/21 22/22/22 8/8/8 11/11/11 
f 23/23/23 24/24/24 12/25/12 15/15/15 
f 25/26/25 26/27/26 16/28/16 15/29/15 
f 27/30/27 28/31/28 12/32/12 11/33/11 
f 29/34/29 30/35/30 8/36/8 7/37/7 
f 31/38/31 32/39/32 4/40/4 3/41/3 
f 26/27/26 31/38/31 3/41/3 16/28/16 
f 32/39/32 29/34/29 7/37/7 4/40/4 
f 28/31/28 25/26/25 15/29/15 12/32/12 
f 30/35/30 27/30/27 11/33/11 8/36/8 
f 26/27/26 25/26/25 33/42/33 
f 28/31/28 27/30/27 33/42/33 
f 30/35/30 29/34/29 33/42/33 
f 32/39/32 31/38/31 33/42/33 
f 31/38/31 26/27/26 33/42/33 
f 29/34/29 32/39/32 33/42/33 
f 25/26/25 28/31/28 33/42/33 
f 27/30/27 30/35/30 33/42/33 
f 4/4/4 18/18/18 1/1/1 
f 2/2/2 19/19/19 3/3/3 
f 8/8/8 22/22/22 5/5/5 
f 12/12/12 24/43/24 9/9/9 
f 7/7/7 6/6/6 17/17/17 
f 20/20/20 13/13/13 16/16/16 
f 11/11/11 10/10/10 21/21/21 
f 15/15/15 14/14/14 23/23/23 
f 34/44/34 35/45/35 2/46/2 1/47/1 
f 36/48/36 37/49/37 6/50/6 5/51/5 
f 38/52/38 39/53/39 10/54/10 9/55/9 
f 40/56/40 41/57/41 14/58/14 13/59/13 
f 42/60/42 43/61/43 20/62/20 19/63/19 
f 44/64/44 45/65/45 18/66/18 17/67/17 
f 46/68/46 47/69/47 24/70/24 23/71/23 
f 48/72/48 49/73/49 22/74/22 21/75/21 
f 35/45/35 42/60/42 19/63/19 2/46/2 
f 37/49/37 44/64/44 17/67/17 6/50/6 
f 41/57/41 46/68/46 23/71/23 14/58/14 
f 39/53/39 48/72/48 21/75/21 10/54/10 
f 43/61/43 40/56/40 13/59/13 20/62/20 
f 45/65/45 34/44/34 1/47/1 18/66/18 
f 47/69/47 38/52/38 9/55/9 24/70/24 
f 49/73/49 36/48/36 5/51/5 22/74/22 
f 35/45/35 34/44/34 50/76/50 
f 37/49/37 36/48/36 50/76/50 
f 39/53/39 38/52/38 50/76/50 
f 41/57/41 40/56/40 50/76/50 
f 43/61/43 42/60/42 50/76/50 
f 45/65/45 44/64/44 50/76/50 
f 47/69/47 46/68/46 50/76/50 
f 49/73/49 48/72/48 50/76/50 
f 42/60/42 35/45/35 50/76/50 
f 44/64/44 37/49/37 50/76/50 
f 46/68/46 41/57/41 50/76/50 
f 48/72/48 39/53/39 50/76/50 
f 40/56/40 43/61/43 50/76/50 
f 34/44/34 45/65/45 50/76/50 
f 38/52/38 47/69/47 50/76/50 
f 36/48/36 49/73/49 50/76/50 
f 51/77/51 52/78/52 53/79/53 
f 54/80/54 55/81/55 56/82/56 
f 57/83/57 58/84/58 59/85/59 60/86/60 
f 61/87/61 62/88/62 63/89/63 64/90/64 
f 65/91/65 66/92/66 67/93/67 68/94/68 
f 53/79/53 52/78/52 69/95/69 70/96/70 
f 55/81/55 54/80/54 71/97/71 72/98/72 
f 60/86/60 59/85/59 73/99/73 74/100/74 
f 68/94/68 67/93/67 75/101/75 76/102/76 
f 63/89/63 73/103/73 70/104/70 
f 77/105/77 75/106/75 51/77/51 58/107/58 
f 69/108/69 66/109/66 64/90/64 
f 78/110/78 57/111/57 56/82/56 76/112/76 
f 62/88/62 71/113/71 74/114/74 
f 65/115/65 72/116/72 61/87/61 
f 67/117/67 52/78/52 51/77/51 75/106/75 
f 63/89/63 70/104/70 69/108/69 64/90/64 
f 59/85/59 53/79/53 70/96/70 73/99/73 
f 60/86/60 54/80/54 56/82/56 57/111/57 
f 61/87/61 72/116/72 71/113/71 62/88/62 
f 68/94/68 55/81/55 72/98/72 65/91/65 
f 62/88/62 74/114/74 73/103/73 63/89/63 
f 77/118/77 58/84/58 57/83/57 78/119/78 
f 65/115/65 61/87/61 64/90/64 66/109/66 
f 78/120/78 76/102/76 75/101/75 77/121/77 
f 66/122/66 69/95/69 52/78/52 67/117/67 
f 58/107/58 51/77/51 53/79/53 59/85/59 
f 74/100/74 71/97/71 54/80/54 60/86/60 
f 76/112/76 56/82/56 55/81/55 68/94/68 
f 79/123/79 80/124/80 81/125/81 82/126/82 
f 83/127/83 84/128/84 85/129/85 86/130/86 
f 86/130/86 85/129/85 81/125/81 80/124/80 
f 83/131/83 86/132/86 80/124/80 79/123/79 
f 85/133/85 84/134/84 82/126/82 81/125/81 
# 60 polygons - 38 triangles

